<?xml version="1.0" encoding="utf-8"?>
<!-- Generator: Adobe Illustrator 22.1.0, SVG Export Plug-In . SVG Version: 6.00 Build 0)  -->
<svg version="1.1" id="图层_1" xmlns="http://www.w3.org/2000/svg" xmlns:xlink="http://www.w3.org/1999/xlink" x="0px" y="0px"
	 viewBox="0 0 54 38" style="enable-background:new 0 0 54 38;" xml:space="preserve">
<style type="text/css">
	.st0{fill:#FFFFFF;}
</style>
<g>
	<path class="st0" d="M40.9,4c-0.3,0.4-0.9,0.6-1.4,0.7h0.2c0.4,0.1,0.7,0.2,1,0.4c0.7,0.5,0.9,7.9,0.9,7.9c0.1-0.7,0.2-7.1,0.6-7.6
		c0.1-0.1,0.2-0.2,0.3-0.3c0.3-0.2,0.7-0.4,1.1-0.5c0,0-0.1,0-0.2-0.1c-0.4-0.1-0.6-0.1-1-0.4c-0.7-0.5-0.9-3.2-1-4
		C41.5,0.2,41.4,3.4,40.9,4z"/>
	<path class="st0" d="M35.5,12.3l13.2,21.8c1.4,2.2,1.1,2.6-1.1,2.6c-4.6,0-13.9,0-17,0c-3-0.5-5.2-2.7-6.3-4
		c-0.4-0.5-0.6-0.9-0.3-1.4l6.6-7.9c1.6-1.8,2.6-1.8,3.8,0L41.7,35c0.4,0.5,0.9,0.5,1.4,0.5h2.2c0.7,0,0.9-0.6,0.5-1.2l-11-17
		c-1.4-2.2-2.4-2.5-4.3-0.3L13.7,36.1c-0.5,0.6,0,0.9,0.6,1.1c0.9,0.3,1.7,0.2,2.6-0.1c1.5-0.5,3.2-1.6,4.6-2.8
		c0.2-0.2,0.4-0.3,0.7,0c3.4,3.5,6.7,3.6,6.7,3.6h23c1.6-0.2,2-1.7,1.3-3L35.4,5c-1.7-2.8-2.7-2.5-4.6-0.2l-18,21.4c0,0-4-1.2-7.6,0
		C0.7,27.8-1.8,33.9,3,37c4.1,2.6,7.5-1,9.9-3.8c2.6-3,6.5-7.7,6.5-7.7L30.6,12C32.8,9.5,33.4,8.8,35.5,12.3L35.5,12.3z M10.3,29.5
		l-2.6,3.2c-1.4,1.7-3.3,3.8-5.7,1.6c-1.7-2.1,0.3-4.3,2.4-5.1s5-1.2,5.9-0.6C10.7,28.8,10.6,29.1,10.3,29.5z"/>
</g>
</svg>
